# Blender 5.2.0 LTS
# www.blender.org
mtllib coffin.mtl
o Cube
v -1.409458 0.755102 -1.000000
v -0.853981 0.555743 0.821058
v 1.409458 0.755102 -1.000000
v 0.853981 0.555743 0.821059
v -1.409458 -0.755102 -1.000000
v -1.000000 -0.755102 1.000000
v 1.409458 -0.755102 -1.000000
v 1.000000 -0.755102 1.000000
v -0.806427 0.555743 -6.052891
v 0.806428 0.555743 -6.052891
v -0.971000 -0.755102 -6.231832
v 0.971000 -0.755102 -6.231832
v -1.228993 0.755102 -1.010689
v -1.000000 0.755102 1.000000
v 1.000000 0.755102 1.000000
v 1.228993 0.755102 -1.010689
v 0.971000 0.755102 -6.231832
v -0.971000 0.755102 -6.231832
v -1.228993 0.555743 -1.010689
v -0.853981 0.755102 0.821058
v 0.853981 0.755102 0.821059
v 1.228993 0.555743 -1.010689
v 0.806428 0.755102 -6.052891
v -0.806427 0.755102 -6.052891
vn -0.0000 1.0000 -0.0000
vn 0.9797 -0.0000 0.2006
vn -0.0000 -1.0000 -0.0000
vn -0.9797 -0.0000 0.2006
vn -0.9965 -0.0000 -0.0835
vn -0.0000 -0.0000 1.0000
vn -0.0000 -0.0000 -1.0000
vn 0.9965 -0.0000 -0.0835
vn 0.9797 -0.0000 -0.2006
vn -0.9797 -0.0000 -0.2006
vn 0.9965 -0.0000 0.0835
vn -0.9965 -0.0000 0.0835
vt 0.446602 0.145102
vt 0.476308 0.000000
vt 0.611605 0.000000
vt 0.641311 0.145102
vt 0.641311 0.158430
vt 0.641311 0.000000
vt 0.799742 0.000000
vt 0.799742 0.158430
vt 0.000000 0.158430
vt 0.032435 0.000000
vt 0.190866 0.000000
vt 0.223301 0.158430
vt 0.958172 0.000000
vt 0.958172 0.158430
vt 0.958172 0.572871
vt 0.799742 0.572871
vt 0.605032 0.544521
vt 0.605032 0.702951
vt 0.446602 0.702951
vt 0.446602 0.544521
vt 0.153836 0.572871
vt 0.153836 0.731301
vt -0.000000 0.731301
vt 0.000000 0.572871
vt 0.641311 0.572871
vt 0.607838 0.544521
vt 0.480075 0.544521
vt 0.188568 0.572871
vt 0.034733 0.572871
vt 0.267303 0.014175
vt 0.237596 0.159277
vt 0.223301 0.158430
vt 0.255736 0.000000
vt 0.402599 0.014175
vt 0.414166 0.000000
vt 0.432306 0.159277
vt 0.446602 0.158430
vt 0.271070 0.558696
vt 0.398832 0.558696
vt 0.411869 0.572871
vt 0.258033 0.572871
vt 0.979086 -0.000000
vt 0.979086 0.145102
vt 0.958172 0.145102
vt 0.958172 -0.000000
vt 0.605032 0.679817
vt 0.605032 0.544521
vt 0.625946 0.544521
vt 0.625946 0.679817
vt 0.979086 0.145102
vt 0.979086 -0.000000
vt 1.000000 -0.000000
vt 1.000000 0.145102
vt 0.174750 0.572871
vt 0.174750 0.700633
vt 0.153836 0.700633
vt 0.153836 0.572871
vt 0.979086 0.544521
vt 0.958172 0.544521
vt 0.979086 0.544521
vt 1.000000 0.544521
s 0
usemtl Material
f 3/5/2 15/6/2 8/7/2 7/8/2
f 7/9/3 8/10/3 6/11/3 5/12/3
f 5/8/4 6/7/4 14/13/4 1/14/4
f 5/8/5 1/14/5 18/15/5 11/16/5
f 8/17/6 15/18/6 14/19/6 6/20/6
f 17/21/7 12/22/7 11/23/7 18/24/7
f 3/5/8 7/8/8 12/16/8 17/25/8
f 7/9/3 5/12/3 11/28/3 12/29/3
f 20/30/1 13/31/1 1/32/1 14/33/1
f 21/34/1 20/30/1 14/33/1 15/35/1
f 16/36/1 21/34/1 15/35/1 3/37/1
f 24/38/1 23/39/1 17/40/1 18/41/1
f 13/31/1 24/38/1 18/41/1 1/32/1
f 23/39/1 16/36/1 3/37/1 17/40/1
f 2/42/9 19/43/9 13/44/9 20/45/9
f 4/46/7 2/47/7 20/48/7 21/49/7
f 22/50/10 4/51/10 21/52/10 16/53/10
f 9/54/6 10/55/6 23/56/6 24/57/6
f 19/43/11 9/58/11 24/59/11 13/44/11
f 10/60/12 22/50/12 16/53/12 23/61/12
usemtl Material
f 19/1/1 2/2/1 4/3/1 22/4/1
f 19/1/1 22/4/1 10/26/1 9/27/1
o Cube.001
v -1.159945 1.624156 -1.000000
v -0.781003 1.469047 1.000000
v 1.448882 0.556305 -1.000000
v 1.069941 0.711414 1.000000
v -0.754164 1.458061 -6.231832
v 1.043102 0.722400 -6.231832
v -1.091918 1.790350 -1.000000
v -0.712976 1.635241 1.000000
v 1.516909 0.722499 -1.000000
v 1.137967 0.877608 1.000000
v -0.686137 1.624255 -6.231832
v 1.111129 0.888594 -6.231832
vn -0.3788 -0.9255 -0.0000
vn 0.3788 0.9255 -0.0000
vn 0.9222 -0.3775 -0.0835
vn -0.0000 -0.0000 -1.0000
vn -0.0000 -0.0000 1.0000
vn 0.9067 -0.3711 0.2006
vn -0.9222 0.3775 -0.0835
vn -0.9067 0.3711 0.2006
vt 0.410335 0.276555
vt 0.350732 0.000000
vt 0.059603 0.000000
vt 0.000000 0.276555
vt 0.063824 1.000000
vt 0.346511 1.000000
vt 0.410335 0.276555
vt 0.820670 0.276555
vt 0.761067 0.000000
vt 0.469937 0.000000
vt 0.474159 1.000000
vt 0.756846 1.000000
vt 0.832565 0.997889
vt 0.864420 0.997915
vt 0.852524 0.279620
vt 0.820670 0.279594
vt 0.939409 0.303598
vt 0.908171 0.297364
vt 0.908171 0.580050
vt 0.939409 0.586284
vt 0.908171 0.297364
vt 0.939409 0.291129
vt 0.939409 -0.000000
vt 0.908171 0.006234
vt 0.864420 0.000026
vt 0.832565 -0.000000
vt 0.896275 0.279620
vt 0.864420 0.279594
vt 0.876316 0.997889
vt 0.908171 0.997915
vt 0.908171 0.000026
vt 0.876316 -0.000000
s 0
usemtl Material
f 27/62/13 28/63/13 26/64/13 25/65/13
f 27/62/13 25/65/13 29/66/13 30/67/13
f 33/68/14 31/69/14 32/70/14 34/71/14
f 33/68/14 36/72/14 35/73/14 31/69/14
f 30/74/15 36/75/15 33/76/15 27/77/15
f 29/78/16 35/79/16 36/80/16 30/81/16
f 28/82/17 34/83/17 32/84/17 26/85/17
f 27/77/18 33/76/18 34/86/18 28/87/18
f 25/88/19 31/89/19 35/90/19 29/91/19
f 26/92/20 32/93/20 31/89/20 25/88/20
