# Blender 5.2.0 LTS
# www.blender.org
mtllib gold.mtl
o Cube
v 0.689673 -1.538874 1.313611
v -0.465738 -0.922273 1.000000
v 0.689673 -1.538874 -1.313611
v -0.465738 -0.922273 -1.000000
v 2.216399 5.504924 1.313611
v 0.909378 5.422049 1.000000
v 2.216399 5.504924 -1.313611
v 0.909378 5.422049 -1.000000
vn -0.4708 -0.8822 -0.0000
vn -0.2361 0.0512 -0.9704
vn -0.0633 0.9980 -0.0000
vn -0.2361 0.0512 0.9704
vn 0.9773 -0.2118 -0.0000
vn -0.9773 0.2118 -0.0000
vt 0.375000 0.000000
vt 0.625000 0.000000
vt 0.625000 0.250000
vt 0.375000 0.250000
vt 0.625000 0.500000
vt 0.375000 0.500000
vt 0.625000 0.750000
vt 0.375000 0.750000
vt 0.625000 1.000000
vt 0.375000 1.000000
vt 0.125000 0.500000
vt 0.125000 0.750000
vt 0.875000 0.500000
vt 0.875000 0.750000
s 0
usemtl Material
f 1/1/1 2/2/1 4/3/1 3/4/1
f 3/4/2 4/3/2 8/5/2 7/6/2
f 7/6/3 8/5/3 6/7/3 5/8/3
f 5/8/4 6/7/4 2/9/4 1/10/4
f 3/11/5 7/6/5 5/8/5 1/12/5
f 8/5/6 4/13/6 2/14/6 6/7/6
o Cube.001
v -0.512475 -1.475339 -2.514926
v -0.333035 -0.809750 -1.358070
v -2.914469 -1.438625 -1.451268
v -2.161579 -0.781801 -0.548349
v -1.152429 5.502752 -4.200955
v -0.909440 5.475390 -2.876670
v -3.554423 5.539465 -3.137296
v -2.737983 5.503338 -2.066948
vn 0.1934 -0.8631 0.4666
vn -0.7917 0.0739 0.6064
vn 0.0226 0.9996 0.0165
vn 0.9827 0.0468 -0.1793
vn -0.3953 -0.2498 -0.8839
vn 0.3953 0.2498 0.8839
vt 0.375000 0.000000
vt 0.625000 0.000000
vt 0.625000 0.250000
vt 0.375000 0.250000
vt 0.625000 0.500000
vt 0.375000 0.500000
vt 0.625000 0.750000
vt 0.375000 0.750000
vt 0.625000 1.000000
vt 0.375000 1.000000
vt 0.125000 0.500000
vt 0.125000 0.750000
vt 0.875000 0.500000
vt 0.875000 0.750000
s 0
usemtl Material
f 9/15/7 10/16/7 12/17/7 11/18/7
f 11/18/8 12/17/8 16/19/8 15/20/8
f 15/20/9 16/19/9 14/21/9 13/22/9
f 13/22/10 14/21/10 10/23/10 9/24/10
f 11/25/11 15/20/11 13/22/11 9/26/11
f 16/19/12 12/27/12 10/28/12 14/21/12
o Cube.002
v -0.568452 -1.410097 0.010673
v -1.191734 -1.002974 1.132856
v -3.104131 -1.375738 -0.675942
v -3.122047 -0.976818 0.610162
v -0.409600 5.791955 -0.215576
v -1.048657 5.483887 0.929074
v -2.945279 5.826314 -0.902191
v -2.978969 5.510042 0.406381
vn -0.0924 -0.9514 0.2938
vn -0.9996 0.0214 -0.0206
vn -0.0500 0.9711 0.2334
vn 0.8736 -0.0040 0.4867
vn 0.2607 -0.0361 -0.9647
vn -0.2607 0.0361 0.9647
vt 0.375000 0.000000
vt 0.625000 0.000000
vt 0.625000 0.250000
vt 0.375000 0.250000
vt 0.625000 0.500000
vt 0.375000 0.500000
vt 0.625000 0.750000
vt 0.375000 0.750000
vt 0.625000 1.000000
vt 0.375000 1.000000
vt 0.125000 0.500000
vt 0.125000 0.750000
vt 0.875000 0.500000
vt 0.875000 0.750000
s 0
usemtl Material
f 17/29/13 18/30/13 20/31/13 19/32/13
f 19/32/14 20/31/14 24/33/14 23/34/14
f 23/34/15 24/33/15 22/35/15 21/36/15
f 21/36/16 22/35/16 18/37/16 17/38/16
f 19/39/17 23/34/17 21/36/17 17/40/17
f 24/33/18 20/41/18 18/42/18 22/35/18
