# Blender 5.2.0 LTS
# www.blender.org
mtllib sugarcane.mtl
o Cylinder
v 0.000000 -0.525032 -0.541981
v 0.000000 2.155168 -0.541981
v 0.105735 -0.525032 -0.531567
v 0.105735 2.155168 -0.531567
v 0.207407 -0.525032 -0.500725
v 0.207407 2.155168 -0.500725
v 0.301108 -0.525032 -0.450641
v 0.301108 2.155168 -0.450641
v 0.383238 -0.525032 -0.383238
v 0.383238 2.155168 -0.383238
v 0.450641 -0.525032 -0.301108
v 0.450641 2.155168 -0.301108
v 0.500725 -0.525032 -0.207407
v 0.500725 2.155168 -0.207407
v 0.531567 -0.525032 -0.105735
v 0.531567 2.155168 -0.105735
v 0.541981 -0.525032 0.000000
v 0.541981 2.155168 0.000000
v 0.531567 -0.525032 0.105735
v 0.531567 2.155168 0.105735
v 0.500725 -0.525032 0.207407
v 0.500725 2.155168 0.207407
v 0.450641 -0.525032 0.301108
v 0.450641 2.155168 0.301108
v 0.383238 -0.525032 0.383238
v 0.383238 2.155168 0.383238
v 0.301108 -0.525032 0.450641
v 0.301108 2.155168 0.450641
v 0.207407 -0.525032 0.500725
v 0.207407 2.155168 0.500725
v 0.105735 -0.525032 0.531567
v 0.105735 2.155168 0.531567
v 0.000000 -0.525032 0.541981
v 0.000000 2.155168 0.541981
v -0.105735 -0.525032 0.531567
v -0.105735 2.155168 0.531567
v -0.207407 -0.525032 0.500725
v -0.207407 2.155168 0.500725
v -0.301108 -0.525032 0.450641
v -0.301108 2.155168 0.450641
v -0.383238 -0.525032 0.383238
v -0.383238 2.155168 0.383238
v -0.450641 -0.525032 0.301108
v -0.450641 2.155168 0.301108
v -0.500725 -0.525032 0.207407
v -0.500725 2.155168 0.207407
v -0.531567 -0.525032 0.105735
v -0.531567 2.155168 0.105735
v -0.541981 -0.525032 0.000000
v -0.541981 2.155168 0.000000
v -0.531567 -0.525032 -0.105735
v -0.531567 2.155168 -0.105735
v -0.500725 -0.525032 -0.207407
v -0.500725 2.155168 -0.207407
v -0.450641 -0.525032 -0.301108
v -0.450641 2.155168 -0.301108
v -0.383238 -0.525032 -0.383238
v -0.383238 2.155168 -0.383238
v -0.301108 -0.525032 -0.450641
v -0.301108 2.155168 -0.450641
v -0.207407 -0.525032 -0.500725
v -0.207407 2.155168 -0.500725
v -0.105735 -0.525032 -0.531567
v -0.105735 2.155168 -0.531567
v 0.000000 2.403151 -0.567377
v 0.110690 2.403151 -0.556475
v 0.217126 2.403151 -0.524188
v 0.315218 2.403151 -0.471757
v 0.401196 2.403151 -0.401196
v 0.471757 2.403151 -0.315218
v 0.524188 2.403151 -0.217126
v 0.556475 2.403151 -0.110690
v 0.567377 2.403151 0.000000
v 0.556475 2.403151 0.110690
v 0.524188 2.403151 0.217126
v 0.471757 2.403151 0.315218
v 0.401196 2.403151 0.401196
v 0.315218 2.403151 0.471757
v 0.217126 2.403151 0.524188
v 0.110690 2.403151 0.556475
v 0.000000 2.403151 0.567377
v -0.110690 2.403151 0.556475
v -0.217126 2.403151 0.524188
v -0.315218 2.403151 0.471757
v -0.401196 2.403151 0.401196
v -0.471757 2.403151 0.315218
v -0.524188 2.403151 0.217126
v -0.556475 2.403151 0.110690
v -0.567377 2.403151 0.000000
v -0.556475 2.403151 -0.110690
v -0.524188 2.403151 -0.217126
v -0.471757 2.403151 -0.315218
v -0.401196 2.403151 -0.401196
v -0.315218 2.403151 -0.471757
v -0.217126 2.403151 -0.524188
v -0.110690 2.403151 -0.556475
v 0.000000 2.628591 -0.541981
v 0.105735 2.628591 -0.531567
v 0.207407 2.628591 -0.500725
v 0.301108 2.628591 -0.450641
v 0.383238 2.628591 -0.383238
v 0.450641 2.628591 -0.301108
v 0.500725 2.628591 -0.207407
v 0.531567 2.628591 -0.105735
v 0.541981 2.628591 0.000000
v 0.531567 2.628591 0.105735
v 0.500725 2.628591 0.207407
v 0.450641 2.628591 0.301108
v 0.383238 2.628591 0.383238
v 0.301108 2.628591 0.450641
v 0.207407 2.628591 0.500725
v 0.105735 2.628591 0.531567
v 0.000000 2.628591 0.541981
v -0.105735 2.628591 0.531567
v -0.207407 2.628591 0.500725
v -0.301108 2.628591 0.450641
v -0.383238 2.628591 0.383238
v -0.450641 2.628591 0.301108
v -0.500725 2.628591 0.207407
v -0.531567 2.628591 0.105735
v -0.541981 2.628591 0.000000
v -0.531567 2.628591 -0.105735
v -0.500725 2.628591 -0.207407
v -0.450641 2.628591 -0.301108
v -0.383238 2.628591 -0.383238
v -0.301108 2.628591 -0.450641
v -0.207407 2.628591 -0.500725
v -0.105735 2.628591 -0.531567
v -0.000000 6.010187 -0.541981
v 0.105735 6.010187 -0.531567
v 0.207407 6.010187 -0.500725
v 0.301108 6.010187 -0.450641
v 0.383238 6.010187 -0.383238
v 0.450640 6.010187 -0.301108
v 0.500725 6.010187 -0.207407
v 0.531567 6.010187 -0.105735
v 0.541981 6.010187 0.000000
v 0.531567 6.010187 0.105735
v 0.500725 6.010187 0.207407
v 0.450640 6.010187 0.301108
v 0.383238 6.010187 0.383238
v 0.301108 6.010187 0.450641
v 0.207407 6.010187 0.500725
v 0.105735 6.010187 0.531567
v -0.000000 6.010187 0.541981
v -0.105736 6.010187 0.531567
v -0.207407 6.010187 0.500725
v -0.301109 6.010187 0.450641
v -0.383239 6.010187 0.383238
v -0.450641 6.010187 0.301108
v -0.500725 6.010187 0.207407
v -0.531567 6.010187 0.105735
v -0.541981 6.010187 0.000000
v -0.531567 6.010187 -0.105735
v -0.500725 6.010187 -0.207407
v -0.450641 6.010187 -0.301108
v -0.383239 6.010187 -0.383238
v -0.301109 6.010187 -0.450641
v -0.207407 6.010187 -0.500725
v -0.105736 6.010187 -0.531567
v -0.000000 6.190539 -0.573278
v 0.111841 6.190539 -0.562262
v 0.219384 6.190539 -0.529639
v 0.318496 6.190539 -0.476663
v 0.405368 6.190539 -0.405368
v 0.476663 6.190539 -0.318496
v 0.529639 6.190539 -0.219384
v 0.562262 6.190539 -0.111841
v 0.573277 6.190539 0.000000
v 0.562262 6.190539 0.111841
v 0.529639 6.190539 0.219384
v 0.476663 6.190539 0.318496
v 0.405368 6.190539 0.405368
v 0.318496 6.190539 0.476663
v 0.219384 6.190539 0.529639
v 0.111841 6.190539 0.562262
v -0.000000 6.190539 0.573278
v -0.111841 6.190539 0.562262
v -0.219384 6.190539 0.529639
v -0.318496 6.190539 0.476663
v -0.405369 6.190539 0.405368
v -0.476663 6.190539 0.318496
v -0.529640 6.190539 0.219384
v -0.562263 6.190539 0.111841
v -0.573278 6.190539 0.000000
v -0.562263 6.190539 -0.111841
v -0.529640 6.190539 -0.219384
v -0.476663 6.190539 -0.318496
v -0.405369 6.190539 -0.405368
v -0.318496 6.190539 -0.476663
v -0.219384 6.190539 -0.529639
v -0.111841 6.190539 -0.562262
v -0.000000 6.393435 -0.541981
v 0.105735 6.393435 -0.531567
v 0.207407 6.393435 -0.500725
v 0.301108 6.393435 -0.450641
v 0.383238 6.393435 -0.383238
v 0.450640 6.393435 -0.301108
v 0.500725 6.393435 -0.207407
v 0.531567 6.393435 -0.105735
v 0.541981 6.393435 0.000000
v 0.531567 6.393435 0.105735
v 0.500725 6.393435 0.207407
v 0.450640 6.393435 0.301108
v 0.383238 6.393435 0.383238
v 0.301108 6.393435 0.450641
v 0.207407 6.393435 0.500725
v 0.105735 6.393435 0.531567
v -0.000000 6.393435 0.541981
v -0.105736 6.393435 0.531567
v -0.207407 6.393435 0.500725
v -0.301109 6.393435 0.450641
v -0.383239 6.393435 0.383238
v -0.450641 6.393435 0.301108
v -0.500725 6.393435 0.207407
v -0.531567 6.393435 0.105735
v -0.541981 6.393435 0.000000
v -0.531567 6.393435 -0.105735
v -0.500725 6.393435 -0.207407
v -0.450641 6.393435 -0.301108
v -0.383239 6.393435 -0.383238
v -0.301109 6.393435 -0.450641
v -0.207407 6.393435 -0.500725
v -0.105736 6.393435 -0.531567
v -0.000001 10.203366 -0.541981
v 0.105734 10.203366 -0.531567
v 0.207406 10.203366 -0.500725
v 0.301107 10.203366 -0.450641
v 0.383237 10.203366 -0.383238
v 0.450639 10.203366 -0.301108
v 0.500724 10.203366 -0.207407
v 0.531566 10.203366 -0.105735
v 0.541980 10.203366 0.000000
v 0.531566 10.203366 0.105735
v 0.500724 10.203366 0.207407
v 0.450639 10.203366 0.301108
v 0.383237 10.203366 0.383238
v 0.301107 10.203366 0.450641
v 0.207406 10.203366 0.500725
v 0.105734 10.203366 0.531567
v -0.000001 10.203366 0.541981
v -0.105737 10.203366 0.531567
v -0.207408 10.203366 0.500725
v -0.301110 10.203366 0.450641
v -0.383240 10.203366 0.383238
v -0.450642 10.203366 0.301108
v -0.500726 10.203366 0.207407
v -0.531568 10.203366 0.105735
v -0.541982 10.203366 0.000000
v -0.531568 10.203366 -0.105735
v -0.500726 10.203366 -0.207407
v -0.450642 10.203366 -0.301108
v -0.383240 10.203366 -0.383238
v -0.301110 10.203366 -0.450641
v -0.207408 10.203366 -0.500725
v -0.105737 10.203366 -0.531567
vn 0.0980 -0.0000 -0.9952
vn 0.2903 -0.0000 -0.9569
vn 0.4714 -0.0000 -0.8819
vn 0.6344 -0.0000 -0.7730
vn 0.7730 -0.0000 -0.6344
vn 0.8819 -0.0000 -0.4714
vn 0.9569 -0.0000 -0.2903
vn 0.9952 -0.0000 -0.0980
vn 0.9952 -0.0000 0.0980
vn 0.9569 -0.0000 0.2903
vn 0.8819 -0.0000 0.4714
vn 0.7730 -0.0000 0.6344
vn 0.6344 -0.0000 0.7730
vn 0.4714 -0.0000 0.8819
vn 0.2903 -0.0000 0.9569
vn 0.0980 -0.0000 0.9952
vn -0.0980 -0.0000 0.9952
vn -0.2903 -0.0000 0.9569
vn -0.4714 -0.0000 0.8819
vn -0.6344 -0.0000 0.7730
vn -0.7730 -0.0000 0.6344
vn -0.8819 -0.0000 0.4714
vn -0.9569 -0.0000 0.2903
vn -0.9952 -0.0000 0.0980
vn -0.9952 -0.0000 -0.0980
vn -0.9569 -0.0000 -0.2903
vn -0.8819 -0.0000 -0.4714
vn -0.7730 -0.0000 -0.6344
vn -0.6344 -0.0000 -0.7730
vn -0.4714 -0.0000 -0.8819
vn 0.8774 -0.1014 -0.4690
vn -0.2903 -0.0000 -0.9569
vn -0.0980 -0.0000 -0.9952
vn -0.0000 -1.0000 -0.0000
vn 0.2885 0.1114 0.9510
vn 0.2888 -0.1014 0.9520
vn -0.9901 -0.1014 0.0975
vn 0.2888 -0.1014 -0.9520
vn 0.8774 -0.1014 0.4690
vn -0.6311 -0.1014 0.7690
vn -0.6311 -0.1014 -0.7690
vn 0.9520 -0.1014 -0.2888
vn 0.0975 -0.1014 0.9901
vn -0.9901 -0.1014 -0.0975
vn 0.4690 -0.1014 -0.8774
vn 0.7690 -0.1014 0.6311
vn -0.7690 -0.1014 0.6311
vn -0.4690 -0.1014 -0.8774
vn 0.9901 -0.1014 -0.0975
vn -0.0975 -0.1014 0.9901
vn -0.9520 -0.1014 -0.2888
vn 0.6311 -0.1014 -0.7690
vn 0.6311 -0.1014 0.7690
vn -0.8774 -0.1014 0.4690
vn -0.2888 -0.1014 -0.9520
vn 0.9901 -0.1014 0.0975
vn -0.2888 -0.1014 0.9520
vn -0.8774 -0.1014 -0.4690
vn 0.7690 -0.1014 -0.6311
vn 0.4690 -0.1014 0.8774
vn -0.9520 -0.1014 0.2888
vn 0.0975 -0.1014 -0.9901
vn -0.0975 -0.1014 -0.9901
vn 0.9520 -0.1014 0.2888
vn -0.4690 -0.1014 0.8774
vn -0.7690 -0.1014 -0.6311
vn 0.2885 0.1114 -0.9510
vn -0.6304 0.1114 -0.7682
vn 0.0974 0.1114 0.9890
vn 0.4685 0.1114 -0.8764
vn -0.4685 0.1114 -0.8764
vn -0.0974 0.1114 0.9890
vn 0.6304 0.1114 -0.7682
vn -0.2885 0.1114 -0.9510
vn -0.2885 0.1114 0.9510
vn 0.7682 0.1114 -0.6304
vn -0.0974 0.1114 -0.9890
vn -0.4685 0.1114 0.8764
vn 0.8764 0.1114 -0.4685
vn -0.6304 0.1114 0.7682
vn 0.9510 0.1114 -0.2885
vn -0.7682 0.1114 0.6304
vn 0.9890 0.1114 -0.0974
vn -0.8764 0.1114 0.4685
vn 0.9890 0.1114 0.0974
vn -0.9510 0.1114 0.2885
vn 0.9510 0.1114 0.2885
vn -0.9890 0.1114 0.0974
vn 0.8764 0.1114 0.4685
vn -0.9890 0.1114 -0.0974
vn 0.7682 0.1114 0.6304
vn -0.9510 0.1114 -0.2885
vn 0.6304 0.1114 0.7682
vn -0.8764 0.1114 -0.4685
vn 0.4685 0.1114 0.8764
vn 0.0974 0.1114 -0.9890
vn -0.7682 0.1114 -0.6304
vn -0.7617 -0.1702 0.6251
vn -0.9837 0.1517 0.0969
vn 0.9807 -0.1702 -0.0966
vn -0.8691 -0.1702 0.4645
vn 0.9807 -0.1702 0.0966
vn -0.9430 -0.1702 0.2860
vn 0.9430 -0.1702 0.2860
vn -0.9807 -0.1702 0.0966
vn 0.8691 -0.1702 0.4645
vn -0.9807 -0.1702 -0.0966
vn 0.7617 -0.1702 0.6251
vn -0.9430 -0.1702 -0.2860
vn 0.6251 -0.1702 0.7617
vn -0.8691 -0.1702 -0.4645
vn 0.4645 -0.1702 0.8691
vn 0.0966 -0.1702 -0.9807
vn -0.7617 -0.1702 -0.6251
vn 0.2861 -0.1702 0.9430
vn 0.2861 -0.1702 -0.9430
vn -0.6251 -0.1702 -0.7617
vn 0.0966 -0.1702 0.9807
vn 0.4645 -0.1702 -0.8691
vn -0.4645 -0.1702 -0.8691
vn -0.0966 -0.1702 0.9807
vn 0.6251 -0.1702 -0.7617
vn -0.2861 -0.1702 -0.9430
vn -0.2861 -0.1702 0.9430
vn 0.7617 -0.1702 -0.6251
vn -0.0966 -0.1702 -0.9807
vn -0.4645 -0.1702 0.8691
vn 0.8691 -0.1702 -0.4645
vn -0.6251 -0.1702 0.7617
vn 0.9430 -0.1702 -0.2860
vn 0.8717 0.1517 0.4659
vn -0.9837 0.1517 -0.0969
vn 0.7641 0.1517 0.6270
vn -0.9459 0.1517 -0.2869
vn 0.6270 0.1517 0.7641
vn -0.8717 0.1517 -0.4659
vn 0.4659 0.1517 0.8717
vn 0.0969 0.1517 -0.9837
vn -0.7641 0.1517 -0.6270
vn 0.2869 0.1517 0.9459
vn 0.2869 0.1517 -0.9459
vn -0.6270 0.1517 -0.7641
vn 0.0969 0.1517 0.9837
vn 0.4659 0.1517 -0.8717
vn -0.4659 0.1517 -0.8717
vn -0.0969 0.1517 0.9837
vn 0.6270 0.1517 -0.7641
vn -0.2869 0.1517 -0.9459
vn -0.2869 0.1517 0.9459
vn 0.7641 0.1517 -0.6270
vn -0.0969 0.1517 -0.9837
vn -0.4659 0.1517 0.8717
vn 0.8717 0.1517 -0.4659
vn -0.6270 0.1517 0.7641
vn 0.9459 0.1517 -0.2869
vn -0.7641 0.1517 0.6270
vn 0.9837 0.1517 -0.0969
vn -0.8717 0.1517 0.4659
vn 0.9837 0.1517 0.0969
vn -0.9459 0.1517 0.2869
vn 0.9459 0.1517 0.2869
vn -0.0000 1.0000 -0.0000
vt 1.000000 0.500000
vt 1.000000 1.000000
vt 0.968750 1.000000
vt 0.968750 0.500000
vt 0.937500 1.000000
vt 0.937500 0.500000
vt 0.906250 1.000000
vt 0.906250 0.500000
vt 0.875000 1.000000
vt 0.875000 0.500000
vt 0.843750 1.000000
vt 0.843750 0.500000
vt 0.812500 1.000000
vt 0.812500 0.500000
vt 0.781250 1.000000
vt 0.781250 0.500000
vt 0.750000 1.000000
vt 0.750000 0.500000
vt 0.718750 1.000000
vt 0.718750 0.500000
vt 0.687500 1.000000
vt 0.687500 0.500000
vt 0.656250 1.000000
vt 0.656250 0.500000
vt 0.625000 1.000000
vt 0.625000 0.500000
vt 0.593750 1.000000
vt 0.593750 0.500000
vt 0.562500 1.000000
vt 0.562500 0.500000
vt 0.531250 1.000000
vt 0.531250 0.500000
vt 0.500000 1.000000
vt 0.500000 0.500000
vt 0.468750 1.000000
vt 0.468750 0.500000
vt 0.437500 1.000000
vt 0.437500 0.500000
vt 0.406250 1.000000
vt 0.406250 0.500000
vt 0.375000 1.000000
vt 0.375000 0.500000
vt 0.343750 1.000000
vt 0.343750 0.500000
vt 0.312500 1.000000
vt 0.312500 0.500000
vt 0.281250 1.000000
vt 0.281250 0.500000
vt 0.250000 1.000000
vt 0.250000 0.500000
vt 0.218750 1.000000
vt 0.218750 0.500000
vt 0.187500 1.000000
vt 0.187500 0.500000
vt 0.156250 1.000000
vt 0.156250 0.500000
vt 0.125000 1.000000
vt 0.125000 0.500000
vt 0.093750 1.000000
vt 0.093750 0.500000
vt 0.062500 1.000000
vt 0.062500 0.500000
vt 0.031250 1.000000
vt 0.031250 0.500000
vt 0.000000 1.000000
vt 0.000000 0.500000
vt 0.750000 0.490000
vt 0.796822 0.485388
vt 0.841844 0.471731
vt 0.883337 0.449553
vt 0.919706 0.419706
vt 0.949553 0.383337
vt 0.971731 0.341844
vt 0.985388 0.296822
vt 0.990000 0.250000
vt 0.985388 0.203178
vt 0.971731 0.158156
vt 0.949553 0.116663
vt 0.919706 0.080294
vt 0.883337 0.050447
vt 0.841844 0.028269
vt 0.796822 0.014612
vt 0.750000 0.010000
vt 0.703178 0.014612
vt 0.658156 0.028269
vt 0.616663 0.050447
vt 0.580294 0.080294
vt 0.550447 0.116663
vt 0.528269 0.158156
vt 0.514612 0.203178
vt 0.510000 0.250000
vt 0.514612 0.296822
vt 0.528269 0.341844
vt 0.550447 0.383337
vt 0.580294 0.419706
vt 0.616663 0.449553
vt 0.658156 0.471731
vt 0.703178 0.485388
vt 0.296822 0.485388
vt 0.250000 0.490000
vt 0.203178 0.485388
vt 0.158156 0.471731
vt 0.116663 0.449553
vt 0.080294 0.419706
vt 0.050447 0.383337
vt 0.028269 0.341844
vt 0.014612 0.296822
vt 0.010000 0.250000
vt 0.014612 0.203178
vt 0.028269 0.158156
vt 0.050447 0.116663
vt 0.080294 0.080294
vt 0.116663 0.050447
vt 0.158156 0.028269
vt 0.203178 0.014612
vt 0.250000 0.010000
vt 0.296822 0.014612
vt 0.341844 0.028269
vt 0.383337 0.050447
vt 0.419706 0.080294
vt 0.449553 0.116663
vt 0.471731 0.158156
vt 0.485388 0.203178
vt 0.490000 0.250000
vt 0.485388 0.296822
vt 0.471731 0.341844
vt 0.449553 0.383337
vt 0.419706 0.419706
vt 0.383337 0.449553
vt 0.341844 0.471731
s 0
usemtl Material
f 1/1/1 2/2/1 4/3/1 3/4/1
f 3/4/2 4/3/2 6/5/2 5/6/2
f 5/6/3 6/5/3 8/7/3 7/8/3
f 7/8/4 8/7/4 10/9/4 9/10/4
f 9/10/5 10/9/5 12/11/5 11/12/5
f 11/12/6 12/11/6 14/13/6 13/14/6
f 13/14/7 14/13/7 16/15/7 15/16/7
f 15/16/8 16/15/8 18/17/8 17/18/8
f 17/18/9 18/17/9 20/19/9 19/20/9
f 19/20/10 20/19/10 22/21/10 21/22/10
f 21/22/11 22/21/11 24/23/11 23/24/11
f 23/24/12 24/23/12 26/25/12 25/26/12
f 25/26/13 26/25/13 28/27/13 27/28/13
f 27/28/14 28/27/14 30/29/14 29/30/14
f 29/30/15 30/29/15 32/31/15 31/32/15
f 31/32/16 32/31/16 34/33/16 33/34/16
f 33/34/17 34/33/17 36/35/17 35/36/17
f 35/36/18 36/35/18 38/37/18 37/38/18
f 37/38/19 38/37/19 40/39/19 39/40/19
f 39/40/20 40/39/20 42/41/20 41/42/20
f 41/42/21 42/41/21 44/43/21 43/44/21
f 43/44/22 44/43/22 46/45/22 45/46/22
f 45/46/23 46/45/23 48/47/23 47/48/23
f 47/48/24 48/47/24 50/49/24 49/50/24
f 49/50/25 50/49/25 52/51/25 51/52/25
f 51/52/26 52/51/26 54/53/26 53/54/26
f 53/54/27 54/53/27 56/55/27 55/56/27
f 55/56/28 56/55/28 58/57/28 57/58/28
f 57/58/29 58/57/29 60/59/29 59/60/29
f 59/60/30 60/59/30 62/61/30 61/62/30
f 14/13/31 12/11/31 70/11/31 71/13/31
f 61/62/32 62/61/32 64/63/32 63/64/32
f 63/64/33 64/63/33 2/65/33 1/66/33
f 1/67/34 3/68/34 5/69/34 7/70/34 9/71/34 11/72/34 13/73/34 15/74/34 17/75/34 19/76/34 21/77/34 23/78/34 25/79/34 27/80/34 29/81/34 31/82/34 33/83/34 35/84/34 37/85/34 39/86/34 41/87/34 43/88/34 45/89/34 47/90/34 49/91/34 51/92/34 53/93/34 55/94/34 57/95/34 59/96/34 61/97/34 63/98/34
f 80/31/35 79/29/35 111/29/35 112/31/35
f 32/31/36 30/29/36 79/29/36 80/31/36
f 50/49/37 48/47/37 88/47/37 89/49/37
f 6/5/38 4/3/38 66/3/38 67/5/38
f 24/23/39 22/21/39 75/21/39 76/23/39
f 42/41/40 40/39/40 84/39/40 85/41/40
f 60/59/41 58/57/41 93/57/41 94/59/41
f 16/15/42 14/13/42 71/13/42 72/15/42
f 34/33/43 32/31/43 80/31/43 81/33/43
f 52/51/44 50/49/44 89/49/44 90/51/44
f 8/7/45 6/5/45 67/5/45 68/7/45
f 26/25/46 24/23/46 76/23/46 77/25/46
f 44/43/47 42/41/47 85/41/47 86/43/47
f 62/61/48 60/59/48 94/59/48 95/61/48
f 18/17/49 16/15/49 72/15/49 73/17/49
f 36/35/50 34/33/50 81/33/50 82/35/50
f 54/53/51 52/51/51 90/51/51 91/53/51
f 10/9/52 8/7/52 68/7/52 69/9/52
f 28/27/53 26/25/53 77/25/53 78/27/53
f 46/45/54 44/43/54 86/43/54 87/45/54
f 64/63/55 62/61/55 95/61/55 96/63/55
f 20/19/56 18/17/56 73/17/56 74/19/56
f 38/37/57 36/35/57 82/35/57 83/37/57
f 56/55/58 54/53/58 91/53/58 92/55/58
f 12/11/59 10/9/59 69/9/59 70/11/59
f 30/29/60 28/27/60 78/27/60 79/29/60
f 48/47/61 46/45/61 87/45/61 88/47/61
f 4/3/62 2/2/62 65/2/62 66/3/62
f 2/65/63 64/63/63 96/63/63 65/65/63
f 22/21/64 20/19/64 74/19/64 75/21/64
f 40/39/65 38/37/65 83/37/65 84/39/65
f 58/57/66 56/55/66 92/55/66 93/57/66
f 115/37/18 114/35/18 146/35/18 147/37/18
f 67/5/67 66/3/67 98/3/67 99/5/67
f 94/59/68 93/57/68 125/57/68 126/59/68
f 81/33/69 80/31/69 112/31/69 113/33/69
f 68/7/70 67/5/70 99/5/70 100/7/70
f 95/61/71 94/59/71 126/59/71 127/61/71
f 82/35/72 81/33/72 113/33/72 114/35/72
f 69/9/73 68/7/73 100/7/73 101/9/73
f 96/63/74 95/61/74 127/61/74 128/63/74
f 83/37/75 82/35/75 114/35/75 115/37/75
f 70/11/76 69/9/76 101/9/76 102/11/76
f 65/65/77 96/63/77 128/63/77 97/65/77
f 84/39/78 83/37/78 115/37/78 116/39/78
f 71/13/79 70/11/79 102/11/79 103/13/79
f 85/41/80 84/39/80 116/39/80 117/41/80
f 72/15/81 71/13/81 103/13/81 104/15/81
f 86/43/82 85/41/82 117/41/82 118/43/82
f 73/17/83 72/15/83 104/15/83 105/17/83
f 87/45/84 86/43/84 118/43/84 119/45/84
f 74/19/85 73/17/85 105/17/85 106/19/85
f 88/47/86 87/45/86 119/45/86 120/47/86
f 75/21/87 74/19/87 106/19/87 107/21/87
f 89/49/88 88/47/88 120/47/88 121/49/88
f 76/23/89 75/21/89 107/21/89 108/23/89
f 90/51/90 89/49/90 121/49/90 122/51/90
f 77/25/91 76/23/91 108/23/91 109/25/91
f 91/53/92 90/51/92 122/51/92 123/53/92
f 78/27/93 77/25/93 109/25/93 110/27/93
f 92/55/94 91/53/94 123/53/94 124/55/94
f 79/29/95 78/27/95 110/27/95 111/29/95
f 66/3/96 65/2/96 97/2/96 98/3/96
f 93/57/97 92/55/97 124/55/97 125/57/97
f 150/43/98 149/41/98 181/41/98 182/43/98
f 102/11/5 101/9/5 133/9/5 134/11/5
f 97/65/33 128/63/33 160/63/33 129/65/33
f 116/39/19 115/37/19 147/37/19 148/39/19
f 103/13/6 102/11/6 134/11/6 135/13/6
f 117/41/20 116/39/20 148/39/20 149/41/20
f 104/15/7 103/13/7 135/13/7 136/15/7
f 118/43/21 117/41/21 149/41/21 150/43/21
f 105/17/8 104/15/8 136/15/8 137/17/8
f 119/45/22 118/43/22 150/43/22 151/45/22
f 106/19/9 105/17/9 137/17/9 138/19/9
f 120/47/23 119/45/23 151/45/23 152/47/23
f 107/21/10 106/19/10 138/19/10 139/21/10
f 121/49/24 120/47/24 152/47/24 153/49/24
f 108/23/11 107/21/11 139/21/11 140/23/11
f 122/51/25 121/49/25 153/49/25 154/51/25
f 109/25/12 108/23/12 140/23/12 141/25/12
f 123/53/26 122/51/26 154/51/26 155/53/26
f 110/27/13 109/25/13 141/25/13 142/27/13
f 124/55/27 123/53/27 155/53/27 156/55/27
f 111/29/14 110/27/14 142/27/14 143/29/14
f 98/3/1 97/2/1 129/2/1 130/3/1
f 125/57/28 124/55/28 156/55/28 157/57/28
f 112/31/15 111/29/15 143/29/15 144/31/15
f 99/5/2 98/3/2 130/3/2 131/5/2
f 126/59/29 125/57/29 157/57/29 158/59/29
f 113/33/16 112/31/16 144/31/16 145/33/16
f 100/7/3 99/5/3 131/5/3 132/7/3
f 127/61/30 126/59/30 158/59/30 159/61/30
f 114/35/17 113/33/17 145/33/17 146/35/17
f 101/9/4 100/7/4 132/7/4 133/9/4
f 128/63/32 127/61/32 159/61/32 160/63/32
f 185/49/99 184/47/99 216/47/99 217/49/99
f 137/17/100 136/15/100 168/15/100 169/17/100
f 151/45/101 150/43/101 182/43/101 183/45/101
f 138/19/102 137/17/102 169/17/102 170/19/102
f 152/47/103 151/45/103 183/45/103 184/47/103
f 139/21/104 138/19/104 170/19/104 171/21/104
f 153/49/105 152/47/105 184/47/105 185/49/105
f 140/23/106 139/21/106 171/21/106 172/23/106
f 154/51/107 153/49/107 185/49/107 186/51/107
f 141/25/108 140/23/108 172/23/108 173/25/108
f 155/53/109 154/51/109 186/51/109 187/53/109
f 142/27/110 141/25/110 173/25/110 174/27/110
f 156/55/111 155/53/111 187/53/111 188/55/111
f 143/29/112 142/27/112 174/27/112 175/29/112
f 130/3/113 129/2/113 161/2/113 162/3/113
f 157/57/114 156/55/114 188/55/114 189/57/114
f 144/31/115 143/29/115 175/29/115 176/31/115
f 131/5/116 130/3/116 162/3/116 163/5/116
f 158/59/117 157/57/117 189/57/117 190/59/117
f 145/33/118 144/31/118 176/31/118 177/33/118
f 132/7/119 131/5/119 163/5/119 164/7/119
f 159/61/120 158/59/120 190/59/120 191/61/120
f 146/35/121 145/33/121 177/33/121 178/35/121
f 133/9/122 132/7/122 164/7/122 165/9/122
f 160/63/123 159/61/123 191/61/123 192/63/123
f 147/37/124 146/35/124 178/35/124 179/37/124
f 134/11/125 133/9/125 165/9/125 166/11/125
f 129/65/126 160/63/126 192/63/126 161/65/126
f 148/39/127 147/37/127 179/37/127 180/39/127
f 135/13/128 134/11/128 166/11/128 167/13/128
f 149/41/129 148/39/129 180/39/129 181/41/129
f 136/15/130 135/13/130 167/13/130 168/15/130
f 220/55/27 219/53/27 251/53/27 252/55/27
f 172/23/131 171/21/131 203/21/131 204/23/131
f 186/51/132 185/49/132 217/49/132 218/51/132
f 173/25/133 172/23/133 204/23/133 205/25/133
f 187/53/134 186/51/134 218/51/134 219/53/134
f 174/27/135 173/25/135 205/25/135 206/27/135
f 188/55/136 187/53/136 219/53/136 220/55/136
f 175/29/137 174/27/137 206/27/137 207/29/137
f 162/3/138 161/2/138 193/2/138 194/3/138
f 189/57/139 188/55/139 220/55/139 221/57/139
f 176/31/140 175/29/140 207/29/140 208/31/140
f 163/5/141 162/3/141 194/3/141 195/5/141
f 190/59/142 189/57/142 221/57/142 222/59/142
f 177/33/143 176/31/143 208/31/143 209/33/143
f 164/7/144 163/5/144 195/5/144 196/7/144
f 191/61/145 190/59/145 222/59/145 223/61/145
f 178/35/146 177/33/146 209/33/146 210/35/146
f 165/9/147 164/7/147 196/7/147 197/9/147
f 192/63/148 191/61/148 223/61/148 224/63/148
f 179/37/149 178/35/149 210/35/149 211/37/149
f 166/11/150 165/9/150 197/9/150 198/11/150
f 161/65/151 192/63/151 224/63/151 193/65/151
f 180/39/152 179/37/152 211/37/152 212/39/152
f 167/13/153 166/11/153 198/11/153 199/13/153
f 181/41/154 180/39/154 212/39/154 213/41/154
f 168/15/155 167/13/155 199/13/155 200/15/155
f 182/43/156 181/41/156 213/41/156 214/43/156
f 169/17/157 168/15/157 200/15/157 201/17/157
f 183/45/158 182/43/158 214/43/158 215/45/158
f 170/19/159 169/17/159 201/17/159 202/19/159
f 184/47/160 183/45/160 215/45/160 216/47/160
f 171/21/161 170/19/161 202/19/161 203/21/161
f 226/99/162 225/100/162 256/101/162 255/102/162 254/103/162 253/104/162 252/105/162 251/106/162 250/107/162 249/108/162 248/109/162 247/110/162 246/111/162 245/112/162 244/113/162 243/114/162 242/115/162 241/116/162 240/117/162 239/118/162 238/119/162 237/120/162 236/121/162 235/122/162 234/123/162 233/124/162 232/125/162 231/126/162 230/127/162 229/128/162 228/129/162 227/130/162
f 207/29/14 206/27/14 238/27/14 239/29/14
f 194/3/1 193/2/1 225/2/1 226/3/1
f 221/57/28 220/55/28 252/55/28 253/57/28
f 208/31/15 207/29/15 239/29/15 240/31/15
f 195/5/2 194/3/2 226/3/2 227/5/2
f 222/59/29 221/57/29 253/57/29 254/59/29
f 209/33/16 208/31/16 240/31/16 241/33/16
f 196/7/3 195/5/3 227/5/3 228/7/3
f 223/61/30 222/59/30 254/59/30 255/61/30
f 210/35/17 209/33/17 241/33/17 242/35/17
f 197/9/4 196/7/4 228/7/4 229/9/4
f 224/63/32 223/61/32 255/61/32 256/63/32
f 211/37/18 210/35/18 242/35/18 243/37/18
f 198/11/5 197/9/5 229/9/5 230/11/5
f 193/65/33 224/63/33 256/63/33 225/65/33
f 212/39/19 211/37/19 243/37/19 244/39/19
f 199/13/6 198/11/6 230/11/6 231/13/6
f 213/41/20 212/39/20 244/39/20 245/41/20
f 200/15/7 199/13/7 231/13/7 232/15/7
f 214/43/21 213/41/21 245/41/21 246/43/21
f 201/17/8 200/15/8 232/15/8 233/17/8
f 215/45/22 214/43/22 246/43/22 247/45/22
f 202/19/9 201/17/9 233/17/9 234/19/9
f 216/47/23 215/45/23 247/45/23 248/47/23
f 203/21/10 202/19/10 234/19/10 235/21/10
f 217/49/24 216/47/24 248/47/24 249/49/24
f 204/23/11 203/21/11 235/21/11 236/23/11
f 218/51/25 217/49/25 249/49/25 250/51/25
f 205/25/12 204/23/12 236/23/12 237/25/12
f 219/53/26 218/51/26 250/51/26 251/53/26
f 206/27/13 205/25/13 237/25/13 238/27/13
